<?xml version="1.0" encoding="utf-8"?>
<!-- Generator: Adobe Illustrator 19.2.1, SVG Export Plug-In . SVG Version: 6.00 Build 0)  -->
<svg version="1.1" id="Capa_1" xmlns="http://www.w3.org/2000/svg" xmlns:xlink="http://www.w3.org/1999/xlink" x="0px" y="0px"
	 viewBox="0 0 512 403.8" style="enable-background:new 0 0 512 403.8;" xml:space="preserve">
<g>
	<path d="M503.9,0H8.1C3.6,0,0,3.6,0,8.1v387.6c0,4.5,3.6,8.1,8.1,8.1h495.8c4.5,0,8.1-3.6,8.1-8.1V8.1
		C512,3.6,508.4,0,503.9,0z M463.3,339.2L351.8,223.6c-1.2-1.3-3.2-1.4-4.6-0.2l-77.4,68.1l-98.9-121.8c-0.6-0.8-1.6-1.2-2.6-1.2
		c-1,0-2,0.5-2.6,1.3l-117,157V48.7h414.7L463.3,339.2L463.3,339.2z"/>
	<path d="M340.8,165.8c22,0,39.8-17.8,39.8-39.8c0-22-17.8-39.8-39.8-39.8c-22,0-39.8,17.8-39.8,39.8
		C301,148,318.8,165.8,340.8,165.8z"/>
</g>
</svg>
